<?xml version="1.0" standalone="no"?>
<!DOCTYPE svg PUBLIC "-//W3C//DTD SVG 20010904//EN"
 "http://www.w3.org/TR/2001/REC-SVG-20010904/DTD/svg10.dtd">
<svg version="1.0" xmlns="http://www.w3.org/2000/svg"
 width="500.000000pt" height="500.000000pt" viewBox="0 0 500.000000 500.000000"
 preserveAspectRatio="xMidYMid meet">

<g transform="translate(0.000000,500.000000) scale(0.100000,-0.100000)"
fill="#000000" stroke="none">
<path d="M0 2500 l0 -2500 2500 0 2500 0 0 2500 0 2500 -2500 0 -2500 0 0
-2500z m2438 1897 c2 -10 -3 -17 -12 -17 -10 0 -16 9 -16 21 0 24 23 21 28 -4z
m-188 -31 c0 -18 -16 -29 -30 -21 -13 8 -1 35 16 35 8 0 14 -6 14 -14z m368
-9 c2 -10 -3 -17 -12 -17 -10 0 -16 9 -16 21 0 24 23 21 28 -4z m243 -33 c69
-21 160 -66 224 -112 28 -20 98 -60 156 -88 287 -141 525 -335 704 -576 42
-57 81 -108 88 -115 7 -6 26 -25 44 -41 32 -29 59 -101 49 -128 -3 -9 23 -33
78 -68 110 -73 218 -188 261 -278 49 -101 68 -208 38 -208 -4 0 -8 26 -8 58 0
95 -55 195 -169 307 -50 50 -107 99 -126 109 l-35 20 40 -45 c56 -62 142 -186
210 -304 31 -55 61 -105 67 -112 14 -17 -8 -53 -33 -53 -26 0 -102 64 -134
112 -14 22 -33 73 -41 116 -18 87 -69 202 -109 247 -19 22 -25 25 -20 10 4
-11 24 -72 45 -135 40 -118 80 -294 80 -349 0 -22 18 -57 58 -115 35 -50 66
-109 76 -143 9 -32 21 -65 27 -73 30 -48 42 -92 46 -171 4 -100 -7 -121 -53
-100 -35 16 -81 14 -88 -4 -4 -10 -19 -15 -49 -15 -25 0 -64 -7 -87 -15 -77
-27 -120 -16 -120 32 0 22 -2 23 -72 17 -62 -5 -78 -2 -105 15 -38 24 -43 58
-13 86 18 16 18 19 4 30 -15 10 -15 17 -4 51 27 86 64 136 174 235 60 54 129
108 153 120 l44 21 -6 47 c-14 105 -39 212 -75 321 -65 196 -54 187 -104 87
-48 -96 -92 -158 -208 -294 -61 -71 -88 -95 -116 -103 -76 -21 -77 -15 -26
114 46 114 57 132 170 277 113 144 114 146 113 206 -1 26 2 60 6 75 9 33 -38
105 -168 255 -151 175 -346 329 -550 434 l-101 52 28 -34 c15 -19 44 -55 64
-81 22 -29 46 -50 64 -53 26 -6 41 -35 18 -35 -5 0 -10 -7 -10 -16 0 -11 5
-14 18 -9 9 4 31 9 48 12 26 4 33 1 39 -16 10 -32 -3 -44 -41 -38 -44 7 -44
-9 0 -17 36 -7 62 -29 52 -45 -3 -5 1 -12 10 -15 8 -3 14 -14 12 -23 -1 -10 1
-24 6 -31 4 -7 2 -19 -5 -28 -10 -12 -15 -13 -33 -1 -21 14 -21 13 -18 -22 4
-41 -16 -68 -43 -57 -19 7 -19 49 1 87 10 20 13 41 9 61 -6 23 -4 29 5 23 8
-5 11 -4 6 3 -10 17 -30 5 -50 -29 -19 -31 -39 -34 -44 -6 -2 11 8 24 27 35
17 9 31 23 31 30 0 17 -11 15 -25 -5 -8 -11 -18 -14 -31 -9 -17 7 -17 9 10 31
l29 23 -24 38 c-13 21 -27 42 -31 48 -4 6 -12 5 -22 -4 -9 -7 -20 -10 -24 -6
-4 4 2 14 12 21 18 14 18 16 -10 52 -15 21 -51 61 -79 88 -43 43 -66 55 -146
82 -220 75 -443 109 -642 99 -81 -5 -117 -3 -112 4 12 19 320 12 450 -10 99
-17 248 -55 330 -85 16 -5 15 -3 -5 14 -44 36 -123 74 -210 102 -91 29 -90 40
1 13z m-695 -49 c-5 -14 -9 -15 -21 -5 -12 10 -13 16 -4 27 15 18 34 1 25 -22z
m499 -44 c7 -12 -12 -24 -25 -16 -11 7 -4 25 10 25 5 0 11 -4 15 -9z m-837
-23 c-6 -18 -28 -21 -28 -4 0 9 7 16 16 16 9 0 14 -5 12 -12z m109 -14 c8 -20
-8 -36 -26 -25 -15 10 -8 41 9 41 6 0 13 -7 17 -16z m83 -48 c0 -8 -5 -18 -11
-22 -14 -8 -33 11 -25 25 10 16 36 13 36 -3z m164 6 c2 -4 1 -14 -4 -22 -7
-11 -12 -12 -21 -3 -6 6 -8 16 -5 22 8 13 23 14 30 3z m-444 -117 c-7 -8 -16
-15 -21 -15 -5 0 -9 7 -9 15 0 9 9 15 21 15 18 0 19 -2 9 -15z m-142 -67 c-3
-7 -11 -13 -18 -13 -7 0 -15 6 -17 13 -3 7 4 12 17 12 13 0 20 -5 18 -12z
m1722 -36 c0 -5 -6 -17 -14 -28 -11 -14 -18 -16 -26 -8 -8 8 -7 15 5 28 18 17
35 21 35 8z m-1314 -168 c43 -29 46 -45 34 -172 -6 -64 -13 -128 -16 -142 -2
-14 12 6 33 43 92 164 192 229 283 182 48 -25 64 -84 57 -223 -6 -135 -24
-229 -113 -586 -62 -252 -70 -298 -58 -343 21 -78 119 0 234 186 76 124 85
137 93 125 7 -12 -94 -182 -158 -263 -59 -75 -99 -101 -154 -101 -95 0 -128
50 -118 175 4 39 36 188 72 331 72 288 105 464 105 560 0 71 -20 124 -47 124
-59 0 -163 -130 -212 -266 -19 -53 -42 -153 -61 -269 -31 -192 -60 -334 -85
-422 -13 -45 -22 -56 -61 -79 -39 -23 -48 -25 -59 -13 -12 12 -11 25 10 92 50
157 112 569 135 892 6 88 13 166 15 173 6 17 41 15 71 -4z m-778 -116 c-7 -19
-38 -22 -38 -4 0 10 9 16 21 16 12 0 19 -5 17 -12z m-283 -188 c3 -6 -1 -13
-10 -16 -19 -8 -30 0 -20 15 8 14 22 14 30 1z m100 -121 c0 -7 -8 -15 -17 -17
-18 -3 -25 18 -11 32 10 10 28 1 28 -15z m-167 -56 c-5 -25 -28 -28 -28 -4 0
12 6 21 16 21 9 0 14 -7 12 -17z m2102 -28 c44 -22 88 -62 106 -96 36 -69 40
-203 8 -246 -11 -15 -12 -5 -7 68 9 131 -25 207 -111 248 -135 66 -264 -37
-266 -211 0 -71 31 -160 117 -331 78 -157 123 -287 123 -357 0 -52 0 -52 28
-45 15 3 51 17 79 30 29 13 55 20 58 15 8 -12 -29 -34 -101 -60 l-62 -22 -10
-51 c-35 -170 -137 -253 -279 -228 -75 14 -108 47 -100 102 11 80 81 137 205
165 l72 16 0 60 c0 82 -35 180 -129 361 -44 84 -87 179 -96 211 -47 162 25
331 161 382 50 18 158 13 204 -11z m-2037 -2 c9 -9 -13 -34 -24 -27 -14 8 -11
34 4 34 8 0 17 -3 20 -7z m-176 -47 c-9 -23 -37 -20 -37 3 0 21 20 33 34 20 5
-4 6 -15 3 -23z m121 -109 c2 -10 -3 -17 -12 -17 -10 0 -16 9 -16 21 0 24 23
21 28 -4z m102 -13 c0 -9 -7 -14 -17 -12 -25 5 -28 28 -4 28 12 0 21 -6 21
-16z m-137 -61 c9 -9 -13 -34 -24 -27 -14 8 -11 34 4 34 8 0 17 -3 20 -7z m67
-97 l5 -30 81 0 c66 -1 86 -5 103 -20 27 -24 27 -54 -1 -83 -19 -21 -20 -23
-3 -23 24 0 15 -44 -25 -126 -24 -48 -52 -81 -141 -162 -61 -55 -131 -110
-156 -122 l-44 -21 6 -47 c18 -136 54 -275 106 -412 l32 -83 32 71 c41 88 91
161 195 285 91 109 108 122 163 132 49 9 48 -1 -4 -129 -44 -108 -65 -142
-189 -297 -83 -104 -97 -132 -86 -175 4 -14 1 -41 -6 -60 -11 -33 -10 -36 45
-116 162 -238 408 -454 675 -591 50 -26 94 -47 98 -47 5 0 -10 19 -32 42 -23
24 -53 60 -68 80 -16 22 -39 39 -57 43 -30 7 -41 39 -16 48 6 2 9 8 5 12 -4 4
-23 2 -43 -5 -31 -10 -39 -10 -52 3 -26 26 -9 50 32 45 45 -5 46 9 0 18 -36 6
-61 27 -51 43 3 5 -1 12 -10 15 -10 4 -14 14 -11 25 2 10 1 25 -4 32 -4 8 -3
19 3 26 9 11 15 11 32 0 21 -14 21 -13 18 22 -4 41 16 68 43 57 20 -7 19 -47
-2 -90 -14 -30 -14 -40 -4 -62 l12 -27 19 31 c21 34 50 43 50 15 0 -20 -28
-53 -47 -53 -7 0 -13 -7 -13 -15 0 -20 10 -19 25 2 8 11 18 14 31 9 18 -7 17
-9 -9 -32 l-28 -24 23 -37 c13 -20 26 -41 30 -47 4 -6 12 -5 22 4 9 7 20 10
24 6 4 -4 -2 -14 -12 -21 -18 -14 -18 -16 10 -52 15 -21 51 -61 80 -89 47 -46
63 -55 176 -92 189 -63 327 -85 546 -86 101 -1 173 -4 160 -8 -45 -12 -267 -8
-388 8 -103 13 -295 59 -375 88 -16 6 -15 4 5 -13 39 -32 148 -82 230 -107 82
-25 77 -32 -8 -10 -71 19 -174 69 -236 113 -28 20 -107 64 -176 99 -296 147
-555 367 -723 616 -29 42 -64 84 -80 93 -35 21 -60 70 -61 121 -1 40 -3 43
-61 75 -92 53 -234 199 -278 286 -50 101 -71 213 -40 213 4 0 8 -27 9 -59 1
-116 113 -283 258 -385 92 -65 95 -65 32 0 -57 57 -188 247 -254 366 -28 50
-30 61 -20 78 18 29 45 25 92 -14 62 -51 93 -102 110 -182 9 -40 24 -94 34
-121 18 -47 91 -167 98 -161 1 2 -17 62 -41 133 -44 130 -85 306 -85 364 0 19
-15 52 -44 93 -51 74 -96 160 -96 185 0 10 -14 45 -32 78 -27 52 -32 72 -35
147 -3 79 -1 88 17 98 14 7 26 8 39 0 31 -16 69 -12 92 11 16 16 30 20 53 16
17 -2 49 1 71 8 22 8 58 13 80 12 36 -2 40 -5 45 -31z m3257 -931 c7 -20 -2
-29 -21 -22 -9 4 -13 13 -10 22 8 19 23 19 31 0z m-129 -78 c2 -10 -3 -17 -12
-17 -18 0 -29 16 -21 31 9 14 29 6 33 -14z m90 -14 c-4 -22 -22 -20 -26 1 -2
10 3 16 13 16 10 0 15 -7 13 -17z m140 -55 c-2 -13 -11 -24 -20 -26 -21 -4
-24 18 -6 36 19 19 30 14 26 -10z m-191 -83 c7 -20 -2 -29 -21 -22 -9 4 -13
13 -10 22 8 19 23 19 31 0z m63 -39 c0 -8 -4 -17 -9 -21 -12 -7 -24 12 -16 25
9 15 25 12 25 -4z m-160 -60 c0 -8 -5 -18 -11 -22 -14 -8 -33 11 -25 25 10 16
36 13 36 -3z m-2003 -83 c-6 -97 -16 -113 -72 -113 -40 0 -73 31 -52 49 11 9
17 8 27 -4 34 -41 60 -3 60 89 0 61 2 66 21 66 21 0 22 -3 16 -87z m183 72 c0
-11 -12 -15 -45 -15 -41 0 -45 -2 -45 -25 0 -22 4 -25 40 -25 29 0 40 -4 40
-15 0 -11 -11 -15 -40 -15 -38 0 -40 -2 -40 -30 0 -29 2 -30 45 -30 33 0 45
-4 45 -15 0 -12 -14 -15 -65 -15 l-65 0 0 100 0 100 65 0 c51 0 65 -3 65 -15z
m69 -35 c6 -28 11 -58 11 -65 0 -37 18 -9 31 48 12 50 18 62 34 62 16 0 22
-12 34 -62 8 -35 17 -63 21 -63 3 0 12 29 19 65 11 54 17 65 33 65 12 0 18 -5
16 -12 -3 -7 -13 -52 -24 -100 -16 -78 -21 -88 -41 -88 -21 0 -23 3 -57 124
-1 5 -10 -21 -20 -57 -16 -57 -21 -67 -41 -67 -20 0 -24 9 -39 78 -9 43 -19
88 -23 100 -4 17 -1 22 15 22 16 0 22 -10 31 -50z m371 35 c0 -11 -12 -15 -50
-15 -47 0 -50 -2 -50 -25 0 -23 4 -25 45 -25 33 0 45 -4 45 -15 0 -11 -12 -15
-46 -15 -44 0 -45 -1 -42 -27 3 -26 7 -28 51 -31 33 -2 47 -7 47 -18 0 -11
-16 -14 -70 -14 l-70 0 0 100 0 100 70 0 c56 0 70 -3 70 -15z m80 -70 l0 -85
45 0 c33 0 45 -4 45 -15 0 -12 -14 -15 -65 -15 l-65 0 0 100 c0 93 1 100 20
100 18 0 20 -7 20 -85z m241 75 c23 -13 26 -62 5 -79 -12 -10 -12 -16 -1 -39
26 -54 28 -72 7 -72 -13 0 -24 13 -35 40 -11 29 -21 40 -36 40 -18 0 -21 -6
-21 -40 0 -33 -3 -40 -20 -40 -19 0 -20 7 -20 100 l0 100 51 0 c28 0 59 -5 70
-10z m110 -31 l21 -42 24 42 c16 26 32 41 45 41 18 0 17 -5 -16 -63 -22 -41
-35 -77 -35 -100 0 -30 -4 -37 -20 -37 -17 0 -20 7 -20 42 0 28 -10 59 -30 95
-36 62 -36 63 -10 63 13 0 27 -14 41 -41z m1049 -78 c0 -14 -18 -23 -30 -16
-6 4 -8 11 -5 16 8 12 35 12 35 0z m-170 -36 c0 -8 -6 -15 -14 -15 -17 0 -28
14 -19 24 12 12 33 6 33 -9z m-1548 -247 l37 -108 -23 0 c-17 0 -26 7 -30 25
-6 22 -12 25 -51 25 -39 0 -45 -3 -51 -25 -4 -18 -13 -25 -29 -25 l-24 0 34
100 c41 122 41 122 73 118 24 -3 30 -13 64 -110z m208 92 c25 -25 25 -52 0
-75 -14 -12 -17 -22 -10 -30 5 -6 16 -30 24 -53 15 -41 15 -42 -7 -42 -18 0
-26 10 -37 43 -12 34 -20 43 -42 45 -27 3 -28 2 -28 -42 0 -39 -3 -46 -20 -46
-19 0 -20 7 -20 110 l0 110 60 0 c47 0 64 -4 80 -20z m218 3 c-2 -12 -14 -19
-36 -21 l-32 -3 0 -90 c0 -82 -1 -89 -20 -89 -19 0 -20 7 -20 90 l0 90 -30 0
c-23 0 -30 4 -30 20 0 18 7 20 86 20 76 0 85 -2 82 -17z m798 -224 c10 -17
-13 -36 -27 -22 -12 12 -4 33 11 33 5 0 12 -5 16 -11z m-1866 -38 c0 -12 -29
-41 -41 -41 -12 0 -11 7 1 31 11 19 40 27 40 10z m1560 -136 c0 -8 -9 -15 -20
-15 -20 0 -26 11 -13 23 12 13 33 7 33 -8z m-444 -96 c10 -17 -13 -36 -27 -22
-12 12 -4 33 11 33 5 0 12 -5 16 -11z m169 -10 c0 -7 -8 -15 -17 -17 -18 -3
-25 18 -11 32 10 10 28 1 28 -15z m82 -35 c8 -21 -13 -42 -28 -27 -13 13 -5
43 11 43 6 0 13 -7 17 -16z m103 -29 c0 -8 -7 -15 -15 -15 -8 0 -15 7 -15 15
0 8 7 15 15 15 8 0 15 -7 15 -15z m-835 -14 c7 -12 -12 -24 -25 -16 -11 7 -4
25 10 25 5 0 11 -4 15 -9z m499 -56 c3 -9 -1 -18 -10 -22 -19 -7 -28 2 -21 22
8 19 23 19 31 0z m-454 -86 c0 -24 -23 -21 -28 4 -2 10 3 17 12 17 10 0 16 -9
16 -21z m374 12 c3 -5 -1 -14 -8 -20 -16 -13 -32 2 -21 19 8 12 22 13 29 1z
m-196 -48 c-4 -22 -22 -20 -26 1 -2 10 3 16 13 16 10 0 15 -7 13 -17z"/>
<path d="M4025 3371 c-3 -16 -3 -44 0 -63 7 -40 -24 -93 -133 -225 -40 -48
-88 -119 -106 -158 -71 -149 -89 -195 -82 -202 10 -10 116 104 202 217 36 47
87 129 114 183 43 86 50 107 50 158 0 51 -20 119 -34 119 -3 0 -7 -13 -11 -29z"/>
<path d="M4076 3360 c15 -42 8 -132 -16 -193 -28 -74 -115 -205 -218 -327 -89
-106 -100 -138 -15 -45 145 159 260 339 283 440 12 53 0 114 -27 136 -14 12
-15 11 -7 -11z"/>
<path d="M4238 3073 c21 -41 46 -123 56 -184 8 -47 49 -107 105 -153 34 -29
46 -34 57 -25 8 6 14 15 14 18 0 10 -136 233 -187 308 -51 73 -73 91 -45 36z"/>
<path d="M4080 2499 c-30 -16 -70 -44 -88 -62 -38 -36 -92 -139 -92 -174 0
-21 4 -23 48 -23 26 0 64 5 84 11 37 10 38 10 22 34 -20 31 -13 63 27 121 16
23 29 49 29 57 0 8 9 26 21 41 26 33 17 33 -51 -5z"/>
<path d="M4170 2468 c-56 -29 -112 -108 -108 -152 3 -34 -1 -33 100 -20 62 8
146 -17 226 -67 35 -21 65 -39 68 -39 2 0 4 18 4 40 0 46 -33 120 -54 120 -8
0 -43 32 -79 70 -73 79 -87 83 -157 48z"/>
<path d="M4124 2236 c-29 -45 -36 -64 -36 -101 2 -83 26 -100 99 -70 19 8 55
15 79 15 50 0 57 15 23 46 -35 31 -52 74 -46 116 5 34 3 38 -16 38 -12 0 -32
3 -44 6 -18 5 -28 -4 -59 -50z"/>
<path d="M4087 2259 c-21 -11 -68 -25 -104 -32 -53 -10 -70 -17 -87 -40 l-21
-29 23 -19 c32 -25 81 -33 130 -19 34 9 42 15 42 33 0 13 14 45 31 71 16 27
29 50 27 51 -2 2 -20 -6 -41 -16z"/>
<path d="M4256 2245 c-8 -30 13 -83 43 -109 13 -12 41 -21 69 -23 26 -3 58 -5
72 -6 20 -2 26 3 28 25 3 21 -5 32 -40 56 -47 32 -142 82 -157 82 -5 0 -12
-11 -15 -25z"/>
<path d="M2740 2206 c-94 -25 -150 -79 -150 -143 0 -36 9 -49 42 -62 77 -29
170 60 194 184 6 32 4 35 -17 34 -13 0 -44 -6 -69 -13z"/>
<path d="M810 2935 c-19 -7 -54 -14 -77 -14 -49 -1 -56 -16 -22 -47 33 -29 51
-72 47 -112 -3 -34 -1 -37 31 -43 46 -10 51 -6 90 53 26 39 33 61 33 94 -2 82
-26 98 -102 69z"/>
<path d="M536 2893 c-13 -14 -5 -41 22 -65 28 -27 122 -82 158 -92 49 -15 34
83 -19 131 -15 14 -42 22 -88 26 -37 3 -69 3 -73 0z"/>
<path d="M958 2883 c-23 -3 -28 -10 -28 -32 0 -15 -13 -48 -30 -74 -16 -26
-27 -47 -24 -47 3 0 26 9 52 20 26 11 71 23 101 27 42 6 58 14 74 36 l21 27
-21 22 c-22 21 -88 31 -145 21z"/>
<path d="M540 2776 c0 -62 27 -114 67 -131 18 -8 53 -40 79 -74 26 -34 54 -61
63 -61 19 0 101 30 118 43 7 5 26 30 43 55 53 80 33 135 -39 105 -65 -28 -204
11 -298 83 l-33 25 0 -45z"/>
<path d="M958 2748 c-26 -9 -27 -10 -12 -34 19 -28 10 -64 -31 -126 -14 -21
-25 -43 -25 -49 0 -7 -12 -27 -26 -46 l-26 -34 69 35 c39 19 86 53 107 76 42
46 86 132 86 168 0 20 -4 22 -57 21 -32 0 -70 -5 -85 -11z"/>
<path d="M540 2280 c-8 -16 -1 -35 41 -107 61 -104 164 -257 185 -273 9 -8 5
8 -10 43 -14 30 -32 90 -41 133 -9 47 -26 94 -42 116 -23 34 -103 108 -117
108 -3 0 -10 -9 -16 -20z"/>
<path d="M1195 2183 c-106 -121 -215 -281 -245 -359 -27 -74 -30 -148 -5 -194
l18 -35 9 25 c5 14 7 42 5 64 -8 55 4 77 92 186 121 149 129 161 181 281 28
62 50 117 50 121 0 22 -27 -1 -105 -89z"/>
<path d="M1154 2183 c-222 -255 -311 -445 -250 -537 23 -36 27 -30 13 21 -29
110 71 305 279 541 26 28 42 52 36 52 -6 0 -41 -35 -78 -77z"/>
<path d="M2850 1616 c0 -22 4 -26 31 -26 26 0 30 3 27 23 -2 16 -11 23 -30 25
-24 3 -28 0 -28 -22z"/>
<path d="M2292 1301 c-17 -47 -15 -51 13 -51 28 0 30 11 11 55 l-12 30 -12
-34z"/>
<path d="M2487 1343 c-4 -3 -7 -17 -7 -30 0 -20 5 -23 34 -23 39 0 53 21 30
45 -16 16 -46 20 -57 8z"/>
</g>
</svg>
